<svg width="1421" height="300" viewBox="0 0 1421 300" fill="none" xmlns="http://www.w3.org/2000/svg">
<path d="M141.886 84.7749H158.113V103.452H141.886V84.7749Z" fill="white"/>
<path d="M118.288 199.258H88.0263C86.0317 199.258 86.0317 197.252 86.0317 197.252V121.406C86.0317 121.406 86.0317 119.419 88.0263 119.419H141.886L141.886 103.452H122.084C122.084 103.452 118.076 103.452 114.069 105.438L76.0026 121.406C71.9946 123.393 70 127.403 70 131.376V195.247C70 197.252 70 199.239 71.9946 201.244L84.0184 213.22C86.013 215.225 87.523 215.225 90.021 215.225H118.293C118.295 210.372 118.297 204.638 118.299 199.368H180.991V215.225H209.979C212.477 215.225 213.987 215.225 215.982 213.22L228.005 201.244C230 199.258 230 197.252 230 195.247V131.376C230 127.385 228.005 123.393 223.997 121.406L185.931 105.438C181.924 103.452 177.916 103.452 177.916 103.452H158.113L158.113 119.419H211.992C213.987 119.419 213.987 121.406 213.987 121.406V197.252C213.987 197.252 213.987 199.258 211.992 199.258H181.051V183.514H118.304C118.304 185.041 118.29 197.922 118.288 199.258Z" fill="white"/>
<path d="M118.288 159.008H181.051V143.153H118.304C118.304 144.773 118.288 159.157 118.288 159.008Z" fill="white"/>
<path d="M312 142C310 142 310 144 310 144V188C310 188 310 190 312 190H374V206H314C312 206 310 206 308 204L296 192C294 190 294 188 294 186V146C294 144 294 142 296 140L308 128C310 126 312 126 314 126H374V142H312Z" fill="white"/>
<path d="M402.447 186V146C402.447 144 402.447 142 404.447 140L416.447 128C418.447 126 420.447 126 422.447 126H462.447C464.447 126 466.447 126 468.447 128L480.447 140C482.447 142 482.447 144 482.447 146V186C482.447 188 482.447 190 480.447 192L468.447 204C466.447 206 464.447 206 462.447 206H422.447C420.447 206 418.447 206 416.447 204L404.447 192C402.447 190 402.447 188 402.447 186ZM418.447 188C418.447 190 420.447 190 420.447 190H464.447C464.447 190 466.447 190 466.447 188V144C466.447 142 464.447 142 464.447 142H420.447C420.447 142 418.447 142 418.447 144V188Z" fill="white"/>
<path d="M574.895 144C574.895 142 572.894 142 572.894 142H528.894C528.894 142 526.895 142 526.895 144V206H510.895V146C510.895 144 510.894 142 512.894 140L524.895 128C526.895 126 528.895 126 530.895 126H570.895C572.894 126 574.895 126 576.894 128L588.894 140C590.894 142 590.894 144 590.894 146V206H574.895V144Z" fill="white"/>
<path d="M699.342 206H671.342C669.342 206 667.342 206 665.342 204L653.342 192C651.342 190 651.342 188.125 651.342 186V144C651.342 141.875 649.342 142 649.342 142H619.342V126H649.342C649.342 126 651.342 126.125 651.342 124V94H667.342V124C667.342 126.125 669.342 126 669.342 126H699.342V142H669.342C669.342 142 667.342 141.875 667.342 144V188C667.342 190 669.342 190 669.342 190H699.342V206Z" fill="white"/>
<path d="M727.789 206V146C727.789 144 727.789 142 729.789 140L741.789 128C743.789 126 745.789 126 747.789 126H807.789V142H745.789C745.789 142 743.789 142 743.789 144V206H727.789Z" fill="white"/>
<path d="M836.236 186V146C836.236 144 836.236 142 838.236 140L850.236 128C852.236 126 854.236 126 856.236 126H896.236C898.236 126 900.236 126 902.236 128L914.236 140C916.236 142 916.236 144 916.236 146V186C916.236 188 916.236 190 914.236 192L902.236 204C900.236 206 898.236 206 896.236 206H856.236C854.236 206 852.236 206 850.236 204L838.236 192C836.236 190 836.236 188 836.236 186ZM852.236 188C852.236 190 854.236 190 854.236 190H898.236C898.236 190 900.236 190 900.236 188V144C900.236 142 898.236 142 898.236 142H854.236C854.236 142 852.236 142 852.236 144V188Z" fill="white"/>
<path d="M1024.68 190V206H944.684V190H974.683C975.558 190 976.683 190.125 976.683 188V112C976.683 109.875 975.558 110 974.683 110H944.684V94H972.683C974.683 94 976.684 94 978.684 96L990.684 108C992.684 110 992.683 112 992.683 114V188C992.683 190.125 993.808 190 994.683 190H1024.68Z" fill="white"/>
<path d="M1133.13 190V206H1053.13V190H1083.13C1084.01 190 1085.13 190.125 1085.13 188V112C1085.13 109.875 1084.01 110 1083.13 110H1053.13V94H1081.13C1083.13 94 1085.13 94 1087.13 96L1099.13 108C1101.13 110 1101.13 112 1101.13 114V188C1101.13 190.125 1102.26 190 1103.13 190H1133.13Z" fill="white"/>
<path d="M1241.58 146C1241.58 150 1239.58 154 1235.58 156L1197.58 172C1193.58 174 1189.58 174 1189.58 174H1179.58C1177.58 174 1177.58 176 1177.58 176V188C1177.58 190 1179.58 190 1179.58 190H1241.58V206H1213.58C1213.58 206 1209.58 206 1205.58 204L1167.58 188C1163.58 186 1161.58 182 1161.58 178V146C1161.58 144 1161.58 142 1163.58 140L1175.58 128C1177.58 126 1179.58 126 1181.58 126H1221.58C1223.58 126 1225.58 126 1227.58 128L1239.58 140C1241.58 142 1241.58 143.5 1241.58 146ZM1225.58 144C1225.58 144 1225.58 142 1223.58 142H1179.58C1177.58 142 1177.58 144 1177.58 144V156C1177.58 158 1179.58 158 1179.58 158H1223.58C1225.58 158 1225.58 156 1225.58 156V144Z" fill="white"/>
<path d="M1270.03 206V146C1270.03 144 1270.03 142 1272.03 140L1284.03 128C1286.03 126 1288.03 126 1290.03 126H1350.03V142H1288.03C1288.03 142 1286.03 142 1286.03 144V206H1270.03Z" fill="white"/>
</svg>
